<?xml version="1.0" encoding="utf-8"?>
<svg version="1.1" xmlns="http://www.w3.org/2000/svg" xmlns:xlink="http://www.w3.org/1999/xlink" height="125" width="134">
  <defs>
    <path id="path-0" opacity="1" fill-rule="evenodd" d="M69.92432242168248,3.3931283219438053 C95.32347764871523,-7.105427357601002e-15 121.26504751847938,17.89104024297646 128.69376979936638,42.164958238420645 C128.92960225272788,42.92425968109338 129.14185146075323,43.65983295368261 129.33051742344244,44.41913439635535 C133.99999999999997,62.85592255125285 129.4956001407955,87.74677296886864 117.20872932066173,102.57687927107062 C105.74727208729318,116.41040242976462 88.60225272791268,121.98652239939256 71.26856740584299,123.3627562642369 C50.60964449137625,125 27.568813797958427,121.2272209567198 14.220696937697959,105.28189066059227 C8.772967265047493,98.80410022779043 5.400563181978149,90.78397873955961 3.2073213657162687,82.57403189066059 C-2.842170943040401e-14,70.66249050873196 1.4621612108412245,62.310174639331805 4.8581485392467165,51.06302201974182 C8.631467793030597,38.700645406226265 18.86659626891937,22.518033409263474 29.69130587821187,15.162300683371292 C40.42168250615978,7.877752467729683 57.307286166842644,5.07782839787395 69.92432242168248,3.3931283219438053Z"/>
    <path id="path-1" opacity="1" fill-rule="evenodd" d="M77.9897923266454,109.31567957479137 L78.62653995072142,112.06814730448006 L80.9141147483279,113.68166287015964 L78.53220696937683,115.15280941533807 L77.70679338261161,117.8340926347762 L75.58430130235817,116.00702353834491 L72.77789510735641,116.05447987851196 L73.86272439281929,113.4443811693244 L72.94297782470946,110.78682611996982 L75.74938401971123,111.02410782080504 L77.9897923266454,109.31567957479137Z"/>
    <path id="path-2" opacity="1" fill-rule="evenodd" d="M95.04047870468133,36.422741078208134 L97.96480112636387,37.941343963553614 L101.14853924674404,37.11085801063031 L100.62970784934875,40.36161731207297 L102.39845124955995,43.16154138192871 L99.14396339317133,43.659832953682695 L97.06863780359019,46.22247532270319 L95.58289334741278,43.2564540622628 L92.51707145371336,42.07004555808664 L94.85181274199215,39.72095671981785 L95.04047870468133,36.422741078208134Z"/>
    <path id="path-3" opacity="1" fill-rule="evenodd" d="M17.734600492784338,59.7712604403948 L22.073917634635798,62.02543659832949 L26.790566701865647,60.79157175398629 L26.012319605772724,65.63211845102501 L28.653643083421436,69.76082004555802 L23.819077789510843,70.52012148823077 L20.729672650475294,74.31662870159447 L18.512847588877264,69.92691723614269 L13.984864484336612,68.14730447987846 L17.45160154875055,64.68299164768408 L17.734600492784338,59.7712604403948Z"/>
    <path id="path-4" opacity="1" fill-rule="evenodd" d="M71.1742344244981,14.118261199696306 L73.27314325941539,17.36902050113898 L76.97571277719082,18.365603644646953 L74.57022175290359,21.379081245254394 L74.75888771559278,25.24677296886867 L71.1742344244981,23.870539104024324 L67.58958113340341,25.24677296886867 L67.77824709609261,21.379081245254394 L65.37275607180538,18.365603644646953 L69.07532558958081,17.36902050113898 L71.1742344244981,14.118261199696306Z"/>
    <path id="path-5" opacity="1" fill-rule="evenodd" d="M43.88841957057377,111.30884586180707 C43.605420626539974,110.14616552771444 42.28475888771561,110.43090356871673 41.600844772967285,111.09529233105538 C40.72826469552977,111.97323462414572 40.82259767687436,113.32574031890654 41.55367828229499,114.27486712224746 C43.20450545582544,116.38667425968102 46.90707497360088,115.36636294608954 47.61457233368536,112.8749050873196 C47.991904259063745,111.5223993925588 47.19007391763467,110.24107820804853 46.010911650827204,109.67160212604398 C44.78458289334744,109.07839787395591 43.25167194649774,109.10212604403944 42.048926434354115,109.71905846621102 C40.916930658218945,110.31226271829911 40.09151707145372,111.5223993925588 40.138683562126026,112.85117691723607 C40.18585005279832,114.22741078208043 40.9876803942274,115.57991647684123 42.35550862372406,115.95956719817761 C43.88841957057377,116.38667425968103 45.44491376275962,115.48500379650714 45.916578669482604,113.99012908124519 C46.38824357620559,112.49525436598323 45.727912706793404,110.76309794988605 44.10066877859911,110.38344722854968 C43.11017247448084,110.14616552771444 42.07250967969027,110.62072892938491 41.695177754311885,111.56985573272584 C41.34142907426965,112.47152619589971 41.62442801830343,113.65793470007587 42.52059134107711,114.13249810174634 C41.86026047166493,113.77657555049349 41.67159450897574,112.80372057706903 42.19042590637102,112.25797266514802 C42.87434002111935,111.56985573272584 44.05350228792681,111.85459377372813 44.218585005279856,112.756264236902 C44.147835269271404,112.37661351556562 44.17141851460756,112.82744874715257 44.147835269271404,112.96981776765371 C44.124252023935256,113.08845861807133 43.98275255191837,113.11218678815484 43.95916930658221,113.15964312832189 C44.00633579725451,113.06473044798781 44.17141851460755,113.08845861807133 44.2893347412883,113.08845861807133 C44.4308342133052,113.08845861807133 44.57233368532209,113.08845861807133 44.71383315733899,113.11218678815484 C44.64308342133054,113.13591495823837 44.59591693065825,113.11218678815484 44.54875043998595,113.08845861807133 C44.45441745864135,113.01727410782075 44.501583949313655,113.04100227790428 44.66666666666669,113.15964312832189 C44.407250967969055,111.85459377372813 44.28933474128831,111.4274867122247 44.312917986624456,111.90205011389517 C44.26575149595216,111.9257782839787 44.05350228792681,112.21051632498097 44.00633579725451,112.23424449506449 C43.84125307990147,112.32915717539858 43.74692009855687,112.37661351556562 43.55825413586767,112.3528853454821 C43.53467089053153,112.3528853454821 43.44033790918693,112.25797266514802 43.487504399859226,112.3528853454821 C43.511087645195374,112.40034168564914 43.487504399859226,112.28170083523153 43.55825413586767,112.18678815489744 C43.67617036254842,111.94950645406222 43.95916930658221,111.56985573272584 43.88841957057377,111.30884586180707Z"/>
    <path id="path-6" opacity="1" fill-rule="evenodd" d="M26.34248504047881,50.018982536066794 C26.460401267159558,50.13762338648441 26.625483984512606,50.20880789673498 26.672650475184902,50.37490508731964 C26.88489968321025,50.99183750949124 27.875395987328524,50.92065299924068 27.851812741992376,50.20880789673498 C27.828229496656228,49.520690964312806 27.16789862724404,49.18849658314348 26.53115100316801,49.16476841305996 C25.75290390707508,49.14104024297644 24.9982400563183,49.78170083523156 24.78599084829295,50.51727410782078 C24.550158394931458,51.34776006074409 24.8095740936291,52.24943052391797 25.446321717705136,52.81890660592252 C26.271735304470365,53.55447987851174 27.380147835269387,53.55447987851174 28.32347764871536,53.03246013667423 C29.809222104892775,52.22570235383444 30.587469200985705,50.11389521640088 29.57338965153128,48.666476841305965 C28.464977120732257,47.07668944570992 25.91798662442812,47.147873955960485 24.927490320309847,48.83257403189063 C24.597324885603754,49.37832194381166 24.479408658923006,50.11389521640088 24.644491376276054,50.730827638572485 C24.903907074973695,51.632498101746364 25.611404435058176,52.22570235383444 26.531151003168006,52.34434320425206 C27.309398099260935,52.43925588458615 28.04047870468157,52.249430523917965 28.630059838085305,51.70368261199694 C29.19605772615289,51.20539104024295 29.361140443505935,50.56473044798782 29.455473424850535,49.829157175398606 C29.526223160858983,49.37832194381166 29.19605772615289,48.69020501138949 28.865892291446798,48.381738800303694 C28.535726856740705,48.073272589217886 28.158394931362317,47.883447228549706 27.686730024639328,47.81226271829913 C26.696233720521054,47.669893697797995 25.705737416402776,48.2868261199696 25.446321717705136,49.283409263477566 C25.493488208377432,49.188496583143476 25.540654699049732,49.069855732725856 25.58782118972203,48.974943052391765 C26.153819077789617,48.47665148063778 26.31890179514266,48.28682611996959 26.059486096445017,48.452923310554254 C25.894403379091973,48.54783599088835 26.012319605772717,48.52410782080483 26.38965153115111,48.38173880030369 C26.625483984512606,48.26309794988607 26.8613164378741,48.239369779802544 27.12073213657174,48.31055429005311 L28.32347764871536,49.23595292331052 C28.582893347413002,49.8291571753986 28.6300598380853,50.37490508731963 28.22914466737076,50.89692482915714 C28.158394931362313,50.99183750949123 28.016895459345413,51.134206529992376 27.94614572333697,51.181662870159414 C28.08764519535386,51.110478359908846 27.993312214009265,51.134206529992376 27.686730024639324,51.300303720577034 C27.87539598732852,51.25284738040999 27.781063005983924,51.25284738040999 27.427314325941683,51.32403189066056 C27.733896515311624,51.32403189066056 26.932066173882546,51.20539104024294 27.238648363252487,51.300303720577034 C26.955649419218695,51.22911921032646 26.672650475184902,51.0630220197418 26.531151003168006,50.802012148823046 C26.436818021823406,50.5410022779043 26.413234776487258,50.46981776765372 26.436818021823406,50.61218678815486 C26.460401267159554,50.754555808655994 26.460401267159554,50.68337129840543 26.413234776487258,50.3511769172361 C26.460401267159558,50.754555808655994 26.366068285814958,50.493545937737245 26.460401267159558,50.25626423690201 C26.38965153115111,50.374905087319625 26.38965153115111,50.39863325740315 26.460401267159558,50.279992406985535 C26.554734248504158,50.161351556567915 26.34248504047881,50.374905087319625 26.43681802182341,50.30372057706906 C26.578317493840306,50.23253606681848 26.672650475184902,50.20880789673496 26.79056670186565,50.20880789673496 C26.507567757831858,50.23253606681848 26.955649419218698,50.23253606681848 27.049982400563295,50.279992406985535 C27.191481872580187,50.3511769172361 27.26223160858864,50.46981776765372 27.285814853924787,50.61218678815486 C27.309398099260935,50.754555808655994 27.285814853924787,50.84946848899009 27.238648363252487,50.991837509491226 C27.12073213657174,51.13420652999237 27.144315381907887,51.086750189825324 27.356564589933235,50.84946848899009 C27.332981344597087,50.87319665907361 27.309398099260935,50.896924829157136 27.309398099260935,50.920652999240666 C27.49806406195013,50.802012148823046 27.238648363252487,50.99183750949123 27.403731080605535,50.87319665907362 C27.498064061950135,50.802012148823046 27.592397043294728,50.730827638572485 27.686730024639328,50.63591495823839 L26.83773319253795,49.781700835231554 L26.672650475184902,49.94779802581621 C26.766983456529502,49.94779802581621 26.83773319253795,49.92406985573269 26.932066173882546,49.92406985573269 C26.8141499472018,49.87661351556565 26.7198169658572,49.80542900531508 26.649067229848754,49.71051632498098 C26.436818021823406,49.54441913439632 26.130235832453465,49.8291571753986 26.34248504047881,50.018982536066794Z"/>
    <path id="path-7" opacity="1" fill-rule="evenodd" d="M105.70010559662086,59.29669703872436 C105.6765223512847,59.29669703872436 105.65293910594856,59.27296886864084 105.65293910594856,59.27296886864084 C105.44068989792322,59.1305998481397 105.13410770855329,59.154328018223225 104.92185850052793,59.27296886864084 C103.67194649771203,59.98481397114654 103.15311510031675,61.716970387243734 103.97852868708198,62.950835231586936 C104.87469200985564,64.32706909643127 106.71418514607528,64.63553530751707 107.86976416754658,63.377942293090356 C109.09609292502633,62.04916476841306 108.62442801830335,59.747532270311304 106.83210137275601,59.2255125284738 C105.03977472720868,58.70349278663629 103.08236536430832,60.459377372817 103.67194649771204,62.31017463933181 C103.95494544174583,63.2118451025057 104.87469200985565,63.781321184510254 105.81802182330162,63.52031131359149 C106.80851812741987,63.25930144267274 107.18585005279827,62.31017463933181 107.02076733544523,61.36104783599088 C107.09151707145368,61.83561123766135 106.99718409010907,62.38135914958239 106.4783526927138,62.52372817008352 C105.95952129531852,62.642369020501135 105.53502287926783,62.238990129081245 105.41710665258708,61.76442672741078 L105.41710665258708,61.66951404707669 C105.46427314325938,61.598329536826114 105.48785638859553,61.52714502657555 105.53502287926783,61.45596051632498 C105.55860612460398,61.432232346241456 105.79443857796548,61.26613515565679 105.62935586061242,61.36104783599088 C105.46427314325938,61.4796886864085 105.65293910594858,61.28986332574031 105.67652235128472,61.36104783599088 C105.34635691657864,60.7678435839028 106.5255191833861,59.8424449506454 105.70010559662086,59.29669703872436Z"/>
    <path id="path-8" opacity="1" fill-rule="evenodd" d="M91.50299190425895,99.70577069096443 C91.0077437521998,99.53967350037976 90.48891235480451,99.70577069096443 90.13516367476228,100.0854214123008 C89.616332277367,100.63116932422184 89.59274903203084,101.46165527714516 90.04083069341769,102.05485952923324 C90.39457937345992,102.50569476082018 90.9605772615275,102.79043280182246 91.55015839493123,102.76670463173893 C92.37557198169647,102.7429764616554 93.01231960577249,102.22095671981789 93.27173530447014,101.43792710706163 C93.50756775783164,100.74981017463945 93.01231960577249,99.89559605163261 92.30482224568802,99.72949886104796 C91.62090813093968,99.56340167046329 90.7719112988383,99.94305239179965 90.60682858148526,100.7023538344724 C90.60682858148526,100.72608200455593 90.5832453361491,100.77353834472298 90.5832453361491,100.7972665148065 C90.6304118268214,100.67862566438889 90.6775783174937,100.5837129840548 90.72474480816601,100.46507213363718 C90.70116156282985,100.51252847380422 90.67757831749371,100.53625664388775 90.65399507215756,100.5837129840548 L90.8662442801829,100.29897494305251 L90.7719112988383,100.3938876233866 C90.67757831749371,100.51252847380422 90.6304118268214,100.41761579347013 90.91341077085521,100.29897494305251 C90.7719112988383,100.37015945330309 90.79549454417446,100.27524677296898 91.05491024287211,100.25151860288547 C91.00774375219981,100.25151860288547 90.96057726152752,100.275246772969 90.93699401619136,100.275246772969 C91.05491024287211,100.25151860288547 91.1492432242167,100.25151860288547 91.26715945089745,100.22779043280195 L91.12565997888055,100.22779043280195 C91.36149243224204,100.275246772969 91.4322421682505,100.275246772969 91.31432594156975,100.25151860288548 C91.3850756775782,100.27524677296901 91.45582541358665,100.29897494305253 91.52657514959509,100.34643128321957 C91.36149243224204,100.275246772969 91.73882435762042,100.55998481397128 91.62090813093968,100.41761579347015 C91.73882435762042,100.58371298405481 91.76240760295657,100.60744115413834 91.69165786694812,100.51252847380424 C91.76240760295657,100.6786256643889 91.78599084829271,100.72608200455593 91.76240760295657,100.65489749430539 C91.73882435762042,100.58371298405481 91.76240760295657,100.63116932422186 91.78599084829273,100.82099468489005 C91.76240760295657,101.01082004555825 91.80957409362888,100.82099468489005 91.80957409362888,100.77353834472301 C91.83315733896504,100.60744115413836 91.76240760295659,100.8684510250571 91.78599084829273,100.79726651480654 C91.85674058430118,100.65489749430539 91.92749032030963,99.87186788154914 91.50299190425895,99.70577069096443Z"/>
    <path id="path-9" opacity="1" fill-rule="evenodd" d="M116.85498064061949,102.64806378132137 C117.11439633931714,102.43451025056967 117.13797958465328,102.10231586940034 116.94931362196408,101.84130599848159 C116.73706441393874,101.53283978739579 116.38331573389651,101.41419893697817 116.02956705385427,101.4379271070617 C114.85040478704681,101.50911161731227 114.35515663498768,102.90907365224014 115.1805702217529,103.76328777524697 C116.00598380851811,104.6175018982538 117.5860612460401,104.5225892179197 118.31714185146073,103.59719058466231 C118.57655755015837,103.264996203493 118.71805702217526,102.90907365224015 118.71805702217526,102.48196659073673 C118.71805702217526,101.8413059984816 118.24639211545228,101.27182991647705 117.65681098204855,101.10573272589238 C116.68989792326643,100.82099468489011 115.62865188313972,101.50911161731227 115.65223512847588,102.5531511009873 C115.65223512847588,103.3836370539106 116.38331573389651,104.02429764616573 117.20872932066172,103.90565679574811 C118.08130939809924,103.7870159453305 118.50580781414992,103.00398633257423 118.36430834213303,102.17350037965092 L118.36430834213303,102.12604403948389 L118.36430834213303,102.86161731207311 C118.36430834213303,102.83788914198958 118.36430834213303,102.83788914198958 118.38789158746917,102.81416097190606 C118.26997536078844,103.02771450265776 118.15205913410769,103.21753986332595 118.03414290742694,103.43109339407766 C117.42097852868706,103.05144267274129 116.83139739528333,102.6480637813214 116.21823301654346,102.26841305998504 C116.31256599788806,102.14977220956742 116.33614924322421,102.10231586940039 116.28898275255192,102.17350037965095 C116.21823301654346,102.26841305998504 116.5248152059134,102.03113135914981 116.31256599788807,102.14977220956742 C116.38331573389652,102.10231586940039 116.5248152059134,102.10231586940039 116.38331573389652,102.1260440394839 C116.17106652587118,102.14977220956742 116.57198169658571,102.1260440394839 116.40689897923268,102.1260440394839 C116.31256599788809,102.1260440394839 116.17106652587118,102.07858769931686 116.43048222456883,102.14977220956742 C116.28898275255193,102.1260440394839 116.43048222456883,102.14977220956742 116.47764871524112,102.17350037965095 C116.43048222456883,102.14977220956742 116.33614924322423,102.03113135914981 116.40689897923268,102.1260440394839 C116.47764871524112,102.22095671981799 116.52481520591341,102.24468488990152 116.54839845124957,102.36332574031914 C116.57198169658572,102.45823842065323 116.54839845124957,102.52942293090379 116.54839845124957,102.6243356112379 C116.50123196057727,102.71924829157199 116.47764871524112,102.74297646165552 116.52481520591341,102.69552012148847 C116.54839845124957,102.67179195140494 116.54839845124957,102.67179195140494 116.50123196057726,102.69552012148847 C116.47764871524112,102.74297646165552 116.45406546990498,102.74297646165552 116.50123196057726,102.719248291572 C116.50123196057726,102.719248291572 116.47764871524112,102.719248291572 116.54839845124955,102.69552012148849 C116.50123196057726,102.69552012148849 116.7134811686026,102.64806378132144 116.57198169658571,102.64806378132144 C116.54839845124955,102.64806378132144 116.45406546990498,102.62433561123791 116.45406546990498,102.6006074411544 C116.45406546990498,102.62433561123792 116.54839845124955,102.67179195140497 116.59556494192186,102.69552012148849 C116.64273143259416,102.69552012148849 116.78423090461106,102.69552012148849 116.85498064061949,102.64806378132137Z"/>
    <path id="path-10" opacity="1" fill-rule="evenodd" d="M123.03379091869044,74.41154138192859 C122.63287574797589,73.2014047076689 121.0056318197816,73.29631738800299 120.48680042238632,74.36408504176154 C120.18021823301638,74.98101746393314 120.22738472368867,75.74031890660588 120.60471664906707,76.28606681852692 C121.0056318197816,76.879271070615 121.66596268919378,77.21146545178432 122.37346004927825,77.21146545178432 C123.71770503343876,77.21146545178432 124.84970080957392,76.1674259681093 124.84970080957392,74.81492027334848 C124.84970080957392,74.1268033409263 124.49595212953167,73.43868640850413 124.00070397747254,72.96412300683366 C123.34037310806038,72.34719058466206 122.491376275959,72.15736522399388 121.61879619852147,72.34719058466206 C120.76979936642007,72.53701594533024 120.2038014783525,73.55732725892175 120.46321717705015,74.38781321184506 C120.72263287574779,75.21829916476837 121.61879619852147,75.83523158693997 122.491376275959,75.55049354593768 C122.79795846532892,75.4555808656036 122.1140443505806,75.52676537585415 122.3970432946144,75.55049354593768 C122.1140443505806,75.50303720577064 122.04329461457216,75.50303720577064 122.20837733192522,75.52676537585415 C122.32629355860597,75.5742217160212 122.32629355860597,75.55049354593768 122.18479408658906,75.50303720577062 C122.04329461457216,75.43185269552005 122.04329461457216,75.43185269552005 122.13762759591675,75.50303720577062 C121.94896163322757,75.33694001518597 121.90179514255526,75.31321184510244 121.99612812389985,75.384396355353 C122.09046110524444,75.4793090356871 122.04329461457216,75.40812452543653 121.90179514255526,75.21829916476834 C121.9725448785637,75.36066818526947 121.85462865188295,75.07593014426719 121.8782118972191,75.19457099468481 C121.8310454065468,75.02847380410014 121.8310454065468,74.88610478359901 121.8782118972191,74.72000759301434 C121.80746216121065,74.9810174639331 122.06687785990829,74.41154138192854 121.90179514255526,74.64882308276377 C121.94896163322757,74.60136674259672 121.99612812389985,74.53018223234616 122.04329461457216,74.48272589217912 C122.019711369236,74.53018223234616 121.97254487856372,74.55391040242968 121.92537838789141,74.60136674259672 C121.97254487856372,74.55391040242968 122.04329461457216,74.50645406226265 122.09046110524447,74.45899772209559 C121.97254487856372,74.53018223234616 121.99612812389988,74.50645406226263 122.20837733192522,74.41154138192854 C122.16121084125291,74.43526955201207 122.13762759591678,74.43526955201207 122.09046110524447,74.43526955201207 C121.97254487856372,74.4589977220956 122.04329461457216,74.4589977220956 122.27912706793366,74.41154138192854 L122.16121084125291,74.41154138192854 C122.04329461457216,74.41154138192854 122.1140443505806,74.41154138192854 122.32629355860597,74.43526955201207 C122.06687785990832,74.38781321184503 122.5857092573036,74.57763857251321 122.37346004927828,74.4589977220956 C122.1847940865891,74.36408504176151 122.46779303062286,74.55391040242968 122.51495952129517,74.62509491268025 C122.37346004927828,74.43526955201207 122.53854276663132,74.81492027334845 122.51495952129517,74.60136674259672 C122.53854276663132,74.79119210326492 122.51495952129517,74.95728929384958 122.37346004927828,75.09965831435072 C122.32629355860597,75.14711465451776 122.27912706793369,75.1708428246013 122.20837733192522,75.19457099468481 C122.23196057726138,75.19457099468481 122.27912706793366,75.17084282460128 122.30271031326981,75.17084282460128 C122.42062653995056,75.17084282460128 122.06687785990832,75.12338648443423 122.2555438225975,75.17084282460128 C122.70362548398433,75.33694001518595 123.19887363604347,74.86237661351548 123.03379091869044,74.41154138192859Z"/>
    <path id="path-11" opacity="1" fill-rule="evenodd" d="M45.7514959521294,12.813211845102519 C45.04399859204492,12.22000759301444 43.95916930658205,12.765755504935472 43.369588173178315,13.287775246772982 C42.544174586413085,13.975892179195155 42.04892643435395,15.043659832953697 42.09609292502625,16.135155656795764 C42.19042590637085,18.43678815489751 44.85533262935572,19.860478359908903 46.90707497360072,19.077448747152637 C49.2889827525518,18.152050113895235 49.64273143259405,14.972475322703128 47.94473776839129,13.216590736522411 C45.869412178810144,11.057327258921802 42.0253431890178,12.718299164768425 42.19042590637085,15.73177676537587 C42.28475888771545,17.582574031890676 44.12425202393509,19.196089597570253 45.98732840549089,18.72152619589979 C47.7560718057021,18.29441913439637 49.07673354452646,16.11142748671224 48.01548750439974,14.450455580865619 C47.6145723336852,13.809794988610491 46.90707497360072,13.453872437357644 46.175994368180085,13.548785117691738 C45.539246744104055,13.64369779802583 44.737416402674974,14.16571753986334 44.643083421330374,14.877562642369035 C44.619500175994226,15.114844343204268 44.57233368532192,15.3521260440395 44.548750439985774,15.58940774487473 C44.57233368532192,15.328397873955975 44.69024991200267,15.13857251328779 44.90249912002802,14.996203492786652 C45.185498064061804,14.830106302201989 45.751495952129396,14.877562642369035 45.892995424146285,15.20975702353836 C45.91657866948243,15.3521260440395 45.91657866948243,15.470766894457114 45.91657866948243,15.613135914958255 C45.680746216120944,15.826689445709963 45.657162970784796,15.850417615793486 45.82224568813784,15.755504935459395 C45.98732840549088,15.660592255125302 45.84582893347399,15.755504935459395 45.70432946145709,15.755504935459395 C45.63357972544864,15.73177676537587 45.586413234776344,15.708048595292347 45.53924674410405,15.636864085041779 C45.680746216120944,15.779233105542918 45.70432946145709,15.80296127562644 45.63357972544865,15.684320425208824 C45.79866244280169,15.94533029612758 45.775079197465544,15.921602126044057 45.82224568813785,16.11142748671224 C45.82224568813785,16.063971146545196 45.82224568813785,16.18261199696281 45.77507919746555,16.206340167046335 C45.350580781414855,16.301252847380425 44.619500175994226,16.301252847380425 44.43083421330504,15.541951404707685 C44.14783526927125,14.37927107061505 45.42133051742331,13.975892179195156 45.869412178810144,13.192862566438892 C45.89299542414629,13.121678056188323 45.89299542414629,12.931852695520137 45.7514959521294,12.813211845102519Z"/>
    <path id="path-12" opacity="1" fill-rule="evenodd" d="M1.9574093629002352,66.05922551252851 C2.0517423442448317,65.9405846621109 2.2168250615978757,65.6321184510251 2.3819077789509193,65.60839028094158 C2.8064061950016037,65.51347760060749 2.712073213657007,64.80163249810178 2.2875747976063225,64.84908883826883 C1.1555790214711645,64.94400151860292 1.037662794790419,66.36769172361431 1.4621612108411033,67.19817767653763 C2.146075325589428,68.47949886104787 3.8440689897921656,68.78796507213369 5.164730728616517,68.52695520121493 C6.791974656810806,68.21848899012913 7.428722280886833,66.46260440394842 6.5561422034493155,65.08637053910407 C5.471312917986455,63.401670463173915 3.3959873284053312,63.85250569476086 1.957409362900234,64.77790432801825 C0.7546638507566286,65.537205770691 0.8725800774373742,67.10326499620354 1.957409362900234,67.88629460895982 C3.1601548750438395,68.76423690205017 4.622316085885085,68.40831435079731 5.683562126011796,67.53037205770696 C6.367476240760121,66.96089597570241 6.343892995423973,65.79821564160976 5.825061598028691,65.13382687927111 C5.306230200633411,64.49316628701598 4.22140091517055,64.1135155656796 3.490320309749928,64.65926347760065 C3.2309046110522877,64.84908883826883 3.44315381907763,64.65926347760065 3.490320309749928,64.70671981776769 C3.490320309749928,64.70671981776769 3.7261527631114193,64.75417615793474 3.7497360084475684,64.75417615793474 C3.8676522351283142,65.70330296127565 3.9855684618090597,66.65242976461658 4.1034846884898055,67.57782839787399 C4.079901443153656,67.60155656795752 4.50439985920434,67.19817767653761 4.50439985920434,67.24563401670467 C4.480816613868191,67.03208048595296 5.3062302006334106,67.72019741837514 4.22140091517055,67.12699316628705 C3.8440689897921647,66.91343963553535 4.645899331221235,66.03549734244498 4.268567405842849,65.96431283219442 C4.127067933825954,65.9405846621109 3.8676522351283142,66.10668185269556 3.7025695177752698,66.13041002277907 C2.9479056670184978,66.27277904328022 2.6177402323124097,65.96431283219442 2.641323477648559,65.22873955960519 L1.8630763815556386,65.22873955960519 C1.886659626891788,65.41856492027338 1.6272439281941473,65.67957479119212 1.5329109468495508,65.82194381169327 C1.391411474832656,66.05922551252851 1.7923266455471911,66.29650721336374 1.9574093629002352,66.05922551252851Z"/>
    <path id="path-13" opacity="1" fill-rule="evenodd" d="M123.4582893347416,41.83276385725132 C122.70362548398482,42.3310554290053 122.23196057726184,43.280182232346235 122.56212601196795,44.15812452543659 C122.93945793734633,45.17843583902809 124.16578669482605,45.41571753986332 125.06195001759974,44.941154138192864 C126.24111228440718,44.32422171602126 126.12319605772643,42.56833712984054 124.96761703625515,41.975132877752465 C123.7884547694477,41.381928625664386 122.4442097852872,41.975132877752465 121.76029567053888,43.019172361427486 C122.70362548398484,43.28018223234624 123.6469552974308,43.54119210326499 124.59028511087675,43.77847380410022 L124.59028511087675,43.707289293849655 L124.37803590285142,44.49031890660592 C123.9299542414646,45.05979498861048 123.38753959873316,45.20216400911161 122.72720872932099,44.89369779802581 L122.16121084125344,44.324221716021256 C121.92537838789194,43.75474563401669 121.97254487856425,43.25645406226271 122.30271031327032,42.85307517084282 C122.53854276663182,42.71070615034168 122.7743752199933,42.56833712984054 123.0102076733548,42.44969627942293 C123.10454065469939,42.44969627942293 123.19887363604397,42.42596810933941 123.29320661738859,42.42596810933941 C122.46779303062338,42.44969627942293 121.66596268919433,43.1378132118451 121.71312917986661,44.015755504935456 C121.76029567053891,44.941154138192864 122.4206265399511,45.51063022019742 123.29320661738859,45.6055429005315 C123.97712073213691,45.67672741078208 124.63745160154909,45.20216400911161 124.96761703625518,44.63268792710706 C125.415698697642,43.84965831435079 125.20344948961666,42.8293470007593 124.4959521295322,42.283599088838265 C123.90637099612847,41.83276385725132 123.08095740936326,41.761579347000755 122.4206265399511,42.164958238420645 C121.71312917986663,42.61579347000759 121.43013023583285,43.39882308276385 121.5952129531859,44.205580865603636 C121.71312917986663,44.82251328777524 122.4206265399511,45.344533029612755 123.05737416402714,45.320804859529225 C123.74128827877544,45.2970766894457 124.30728616684301,44.86996962794228 124.51953537486837,44.205580865603636 C124.61386835621296,43.94457099468488 124.35445265751532,44.490318906605914 124.49595212953221,44.25303720577068 C124.35445265751532,44.44286256643887 124.33086941217917,44.46659073652239 124.42520239352379,44.34794988610478 C124.44878563885993,44.324221716021256 124.47236888419609,44.300493545937734 124.49595212953221,44.300493545937734 C124.49595212953221,44.324221716021256 124.23653643083458,44.514047076689444 124.44878563885992,44.34794988610478 C124.6846180922214,44.181852695520114 124.18936994016227,44.371678056188294 124.28370292150686,44.371678056188294 C124.37803590285145,44.371678056188294 124.33086941217917,44.371678056188294 124.1186202041538,44.34794988610478 C123.88278775079232,44.276765375854204 123.67053854276698,44.110668185269546 123.62337205209467,43.84965831435079 C123.59978880675853,43.75474563401669 123.59978880675853,43.68356112376613 123.62337205209467,43.56492027334851 C123.64695529743082,43.493735763097945 123.6941217881031,43.398823082763855 123.67053854276698,43.47000759301442 C123.62337205209467,43.54119210326499 123.64695529743082,43.51746393318147 123.71770503343929,43.42255125284738 C123.5762055614224,43.517463933181475 123.7648715241116,43.42255125284738 123.81203801478388,43.398823082763855 C123.69412178810313,43.4462794229309 123.81203801478388,43.398823082763855 123.90637099612847,43.42255125284738 C123.78845476944772,43.398823082763855 123.88278775079232,43.398823082763855 123.92995424146463,43.4462794229309 C123.90637099612847,43.42255125284738 123.85920450545619,43.3513667425968 123.88278775079232,43.42255125284738 C123.78845476944772,43.16154138192862 123.85920450545616,42.8293470007593 124.04787046814536,42.61579347000759 C124.3544526575153,42.2124145785877 123.97712073213694,41.500569476082 123.4582893347416,41.83276385725132Z"/>
    <path id="path-14" opacity="1" fill-rule="evenodd" d="M97.3280535022877,76.59453302961273 C97.37521999295998,76.38097949886102 97.23372052094311,76.90299924069853 97.16297078493466,77.21146545178433 C97.1865540302708,77.11655277145024 96.97430482224547,77.875854214123 96.85638859556471,78.20804859529233 C96.85638859556471,78.23177676537586 96.85638859556471,78.25550493545936 96.83280535022857,78.25550493545936 C96.54980640619476,79.15717539863324 96.19605772615253,80.0351176917236 95.81872580077413,80.88933181473044 C95.58289334741264,81.41135155656795 95.323477648715,81.93337129840546 95.06406195001736,82.43166287015944 L94.78106300598357,82.92995444191344 C94.68673002463899,83.0960516324981 94.5923970432944,83.26214882308275 94.47448081661364,83.42824601366743 C94.49806406194979,83.4045178435839 94.28581485392444,83.76044039483676 94.19148187257984,83.9028094153379 C94.14431538190755,83.99772209567197 94.0735656458991,84.0926347760061 93.8377331925376,84.44855732725892 C93.95564941921836,84.28246013667426 93.64906722984841,84.7332953682612 93.24815205913387,85.3502277904328 C93.46040126715923,85.04176157934701 93.03590285110853,85.6586940015186 92.94156986976392,85.80106302201975 C92.84723688841933,85.91970387243735 92.77648715241088,86.03834472285497 92.46990496304095,86.44172361427485 C92.46990496304095,86.44172361427485 92.02182330165411,86.98747152619589 91.95107356564566,87.08238420652998 C92.1161562829987,86.8925588458618 90.88982752551894,88.31624905087318 90.01724744808143,89.21791951404708 L89.52199929602229,89.71621108580106 C89.40408306934154,89.83485193621868 89.28616684266079,89.92976461655277 88.74375219992936,90.42805618830675 C89.02675114396315,90.167046317388 88.46075325589557,90.665337889142 88.31925378387868,90.80770690964314 C88.15417106652562,90.9500759301443 87.96550510383642,91.09244495064542 87.44667370644115,91.54328018223235 C87.30517423442424,91.66192103264996 87.16367476240737,91.78056188306758 86.99859204505432,91.8992027334852 C86.85709257303742,91.99411541381929 86.73917634635666,92.1127562642369 86.50334389299519,92.27885345482157 C86.57409362900363,92.23139711465453 86.24392819429755,92.46867881548977 86.10242872228065,92.58731966590737 C85.96092925026375,92.70596051632499 85.79584653291072,92.80087319665908 85.63076381555767,92.91951404707669 C85.46568109820463,93.03815489749431 85.32418162618774,93.1330675778284 84.6874340021117,93.5364464692483 C84.99401619148165,93.32289293849661 84.38085181274175,93.75 84.21576909538871,93.8449126803341 C84.05068637803566,93.93982536066821 83.88560366068263,94.0347380410023 83.74410418866573,94.12965072133639 L82.75360788454746,94.69912680334093 C82.58852516719442,94.79403948367502 82.42344244984139,94.88895216400913 82.25835973248832,94.9601366742597 C82.09327701513527,95.05504935459379 81.92819429778224,95.12623386484435 81.76311158042918,95.22114654517846 C81.59802886307614,95.29233105542903 81.4329461457231,95.38724373576312 81.29144667370619,95.45842824601368 C81.26786342837005,95.45842824601368 81.26786342837005,95.48215641609721 80.89053150299166,95.64825360668188 C81.12636395635315,95.52961275626426 80.11228440689874,96.00417615793472 79.73495248152037,96.17027334851937 C70.65540302710289,100.10914958238423 56.67053854276637,100.70235383447232 48.204153467088794,94.79403948367504 C42.23759239704303,90.64160971905847 37.89827525519157,84.85193621867882 35.70503343892968,78.13686408504176 C34.077789510735386,73.13022019741837 33.91270679338234,67.67274107820802 35.162618796198245,62.59491268033406 C35.96444913762733,59.36788154897491 37.28511087645168,56.30694760820042 39.03027103132673,53.45956719817764 C41.53009503695855,49.37832194381165 44.926082365364046,45.77164009111612 48.81731784582867,42.90053151100981 C55.043294614572076,38.29726651480631 63.08518127419897,35.54479878511762 70.74973600844748,36.1380030372057 C69.61774023231231,37.91761579346994 67.89616332277342,39.38876233864838 67.30658218936968,41.524297646165465 C67.09433298134435,42.354783599088776 66.66983456529366,43.20899772209561 66.48116860260446,44.03948367501892 C64.80675818373786,49.710516324980965 61.24568813797933,57.279802581624864 66.48116860260446,61.906795747911886 C67.84899683210111,63.11693242217156 70.01865540302686,62.57118451025053 71.59873284054885,62.35763097949882 C71.76381555790189,62.33390280941531 71.92889827525494,62.310174639331784 72.07039774727184,62.35763097949882 C72.28264695529717,62.40508731966587 72.42414642731407,62.57118451025053 72.56564589933097,62.7372817008352 C73.48539246744079,63.87623386484431 73.55614220344924,65.5134776006074 73.1080605420624,66.91343963553528 C72.32981344596948,69.28625664388761 69.21682506159777,71.58788914198935 69.61774023231231,74.74373576309793 C69.57057374164002,74.48272589217918 71.69306582189344,78.80125284738041 73.62689193945769,79.84529233105542 C76.07954945441722,81.1503416856492 79.19253783878892,81.57744874715262 81.92819429778223,81.64863325740319 C86.45617740232288,81.76727410782081 90.11158042942601,78.58769931662871 92.80007039774705,75.19457099468488 C93.27173530447004,74.60136674259681 93.69623372052072,73.9844343204252 94.19148187257984,73.24886104783599 C94.1207321365714,73.32004555808655 95.96022527279104,70.63876233864843 96.83280535022857,69.33371298405467 C97.16297078493466,68.85914958238419 97.4223864836323,68.19476082004554 97.61105244632148,67.6490129081245 C97.84688489968298,68.09984813971144 98.01196761703603,68.59813971146542 98.12988384371677,69.12015945330295 C98.5779655051036,71.39806378132118 97.91763463569143,74.24544419134395 97.39880323829614,76.28606681852693 C97.39880323829614,76.28606681852693 97.35163674762386,76.49962034927864 97.3280535022877,76.59453302961273Z"/>
    <path id="path-15" opacity="1" fill-rule="evenodd" d="M49.14748328053487,54.88325740318912 C45.91657866948243,56.11712224753232 43.41675466385061,59.296697038724425 44.07708553326279,63.04574791192109 C44.66666666666652,66.34396355353081 48.13340373108045,69.12015945330302 51.906722984864324,69.07270311313599 C58.43928194297765,69.00151860288541 61.31643787398786,62.04916476841312 58.156282998943865,57.54081245254372 C55.82154171066509,54.26632498101752 52.16613868356197,53.74430523918001 49.14748328053487,54.88325740318912Z"/>
    <path id="path-16" opacity="1" fill-rule="evenodd" d="M55.279127067933736,61.550873196659126 C54.38296374516006,59.72380410022784 52.16613868356203,58.60858010630224 49.78423090461094,59.1780561883068 C48.20415346708894,59.55770690964317 46.836325237592284,60.74411541381933 46.2231608588524,62.26271829916482 C45.70432946145712,63.520311313591556 46.105244632171654,65.11009870918761 46.88349172826459,66.17786636294615 C47.73248856036596,67.31681852695527 49.737064413938654,67.79138192862574 51.10489264343531,67.81511009870925 C52.567053854276566,67.83883826879278 54.029215065117825,67.07953682612002 54.854628651883054,65.84567198177682 C55.84512495600132,64.32706909643133 55.868708201337476,62.78473804100232 55.279127067933736,61.550873196659126Z"/>
    <path id="path-17" opacity="1" fill-rule="evenodd" d="M52.49630411826827,64.92027334851949 C54.35938049982407,64.77790432801835 54.9961281239001,61.90679574791205 53.76979936642034,60.72038724373589 C52.16613868356218,59.15432801822337 50.255895811334085,61.85933940774501 50.656810982048626,63.401670463174014 C50.89264343541012,64.23215641609733 51.6473072861669,64.96772968868655 52.49630411826827,64.92027334851949Z"/>
    <path id="path-18" opacity="1" fill-rule="evenodd" d="M73.60330869412161,79.86902050113896 C72.75431186202024,80.55713743356112 71.76381555790198,81.07915717539865 70.67898627243912,81.3401670463174 C69.57057374164012,81.62490508731968 68.39141147483265,81.62490508731968 67.23583245336133,81.5537205770691 C63.25026399155212,81.31643887623387 60.98627243928179,77.4724753227031 59.759943681802035,74.15053151100986 C61.48152059134093,74.41154138192861 63.17951425554367,74.34035687167805 64.9246744104187,74.41154138192861 C66.4575853572684,74.48272589217919 67.9904963041181,74.48272589217919 69.52340725096781,74.38781321184508 C69.54699049630395,74.5064540622627 69.57057374164009,74.62509491268032 69.59415698697626,74.76746393318147 C70.16015487504383,77.21146545178436 71.66948257655739,78.82498101746394 73.60330869412161,79.86902050113896Z"/>
    <path id="path-19" opacity="1" fill-rule="evenodd" d="M98.08271735304437,71.84889901290816 C97.98838437169978,73.36750189825364 97.7525519183383,74.8623766135156 97.39880323829605,76.30979498861052 C97.3752199929599,76.4047076689446 97.35163674762377,76.52334851936222 97.32805350228762,76.61826119969632 C97.2808870116153,76.78435839028097 97.23372052094302,76.92672741078212 97.21013727560687,77.09282460136677 C97.18655403027071,77.14028094153383 97.18655403027071,77.18773728170086 97.16297078493457,77.23519362186792 C97.06863780358997,77.56738800303725 96.97430482224539,77.89958238420658 96.83280535022848,78.27923310554294 C96.85638859556462,78.25550493545943 96.19605772615245,80.05884586180717 95.81872580077405,80.91305998481401 C95.58289334741255,81.43507972665152 95.34706089405105,81.95709946848902 95.06406195001728,82.45539104024303 L94.78106300598348,82.95368261199701 C94.6867300246389,83.11977980258168 94.59239704329431,83.28587699316634 94.47448081661355,83.451974183751 C94.4980640619497,83.42824601366748 94.28581485392435,83.78416856492032 94.19148187257977,83.92653758542147 C94.14431538190746,84.02145026575556 94.07356564589901,84.11636294608965 94.00281590989056,84.21127562642374 C93.95564941921828,84.30618830675783 93.90848292854598,84.3773728170084 93.83773319253753,84.47228549734251 C93.74340021119293,84.61465451784365 93.64906722984833,84.75702353834478 93.55473424850373,84.92312072892943 C93.46040126715914,85.06548974943058 93.34248504047841,85.23158694001523 92.94156986976384,85.8247911921033 C93.1538190777892,85.51632498101752 92.77648715241081,86.06207289293855 92.6821541710662,86.18071374335616 L92.46990496304088,86.46545178435844 L92.18690601900708,86.82137433561128 C92.11615628299863,86.91628701594537 92.02182330165404,87.01119969627948 91.95107356564559,87.10611237661355 C91.43224216825031,87.72304479878517 90.88982752551888,88.33997722095675 90.3238296374513,88.93318147304484 L90.01724744808135,89.24164768413064 L89.52199929602222,89.73993925588464 C89.40408306934147,89.85858010630224 89.28616684266072,89.95349278663633 89.16825061597997,90.07213363705395 C89.02675114396308,90.19077448747157 88.88525167194618,90.33314350797272 88.74375219992929,90.45178435839033 C88.60225272791239,90.57042520880795 88.4607532558955,90.68906605922555 88.3192537838786,90.8314350797267 C88.15417106652556,90.97380410022785 87.96550510383636,91.11617312072897 87.80042238648332,91.28227031131364 C87.80042238648332,91.28227031131364 87.1636747624073,91.80429005315115 86.99859204505425,91.92293090356875 C87.30517423442419,91.68564920273353 86.7391763463566,92.13648443432047 86.50334389299513,92.30258162490514 C86.57409362900356,92.25512528473809 86.24392819429748,92.49240698557333 86.10242872228059,92.61104783599095 C85.96092925026369,92.72968868640856 85.79584653291064,92.82460136674266 85.6307638155576,92.94324221716026 C85.46568109820457,93.06188306757787 85.32418162618768,93.15679574791196 85.15909890883464,93.25170842824608 C84.99401619148159,93.34662110858017 84.85251671946469,93.46526195899776 84.68743400211164,93.56017463933188 C84.5223512847586,93.65508731966597 84.3808518127417,93.77372817008357 84.21576909538865,93.86864085041768 C84.0506863780356,93.96355353075177 83.88560366068258,94.05846621108586 83.74410418866567,94.15337889141995 L82.75360788454742,94.72285497342449 C82.58852516719438,94.81776765375858 82.42344244984133,94.9126803340927 82.25835973248827,94.98386484434326 C82.09327701513523,95.07877752467735 81.92819429778218,95.14996203492791 81.76311158042913,95.24487471526201 C81.59802886307608,95.31605922551259 81.43294614572304,95.41097190584668 81.24428018303385,95.50588458618078 C81.26786342836999,95.48215641609725 81.00844772967235,95.62452543659839 80.89053150299162,95.67198177676543 C80.51319957761322,95.86180713743363 80.11228440689868,96.02790432801828 79.73495248152031,96.19400151860295 C70.65540302710286,100.1328777524678 56.67053854276638,100.72608200455588 48.204153467088815,94.81776765375861 C42.237592397043066,90.66533788914205 37.898275255191614,84.8756643887624 35.70503343892974,78.16059225512534 C34.07778951073544,73.15394836750194 33.9127067933824,67.6964692482916 35.1626187961983,62.61864085041766 C35.964449137627376,59.39160971905851 37.28511087645173,56.33067577828402 39.03027103132678,53.48329536826124 C36.34178106300576,60.62547456340171 35.53995072157669,68.50322703113142 38.72368884195683,75.28948367501903 C41.69517775431163,81.57744874715266 47.70890531502968,85.96716021260445 54.147131291798416,88.48234624145792 C60.608940513903306,91.02126044039488 67.82541358676497,91.89920273348525 74.59380499823979,90.38059984813977 C81.38577965505075,88.8619969627943 87.68250615980259,84.82820804859534 91.40865892291416,78.91989369779807 C92.49348820837704,77.18773728170089 93.36606828581455,75.33694001518607 94.16789862724363,73.29631738800309 C94.09714889123518,73.36750189825366 95.93664202745481,70.68621867881554 96.80922210489231,69.38116932422176 C97.1393875395984,68.90660592255131 97.39880323829605,68.24221716021265 97.58746920098525,67.6964692482916 C97.82330165434675,68.14730447987854 97.98838437169978,68.64559605163254 98.10630059838053,69.16761579347005 C98.15346708905284,70.0455580865604 98.12988384371668,70.94722854973429 98.08271735304437,71.84889901290816Z"/>
    <path id="path-20" opacity="1" fill-rule="evenodd" d="M54.948961633227675,43.232725892179275 C54.241464273143194,42.829347000759384 53.34530095036952,43.09035687167814 52.92080253431884,43.80220197418383 C52.40197113692356,44.656416097190665 52.77930306230195,45.62927107061511 53.34530095036953,46.34111617312081 C53.93488208377326,47.12414578587707 54.831045406546934,47.71735003796515 55.84512495600135,47.48006833712992 C56.78845476944732,47.26651480637821 57.47236888419565,46.48348519362195 57.77895107356559,45.581814730448066 C58.415698697641616,43.73101746393326 57.09503695881726,41.33447228549743 55.06687785990842,41.310744115413904 C52.873636043646535,41.28701594533038 51.57655755015833,43.873386484434405 52.189721928898216,45.795368261199776 C52.614220344948905,47.12414578587707 53.91129883843711,48.00208807896743 55.30271031326991,47.66989369779811 C56.55262231608583,47.38515565679583 57.68461809222099,45.985193621867964 57.18936994016185,44.65641609719067 C56.48187258007738,42.7344343204253 53.98204857444556,43.13781321184519 53.74621612108406,45.13097949886114 C53.84054910242866,44.25303720577078 54.68954593453004,43.99202733485202 55.349876803942216,44.53777524677305 C55.562126011967564,44.727600607441246 55.32629355860607,44.727600607441246 55.42062653995066,44.60895975702362 C55.42062653995066,44.72760060744124 55.42062653995066,44.49031890660601 55.39704329461451,44.656416097190665 C55.42062653995066,44.56150341685657 55.467793030622964,44.32422171602134 55.49137627595911,44.347949886104864 C55.51495952129526,44.37167805618838 55.39704329461451,44.46659073652248 55.373460049278364,44.46659073652248 C55.349876803942216,44.46659073652248 54.78387891587463,44.53777524677305 54.83104540654693,44.442862566438954 C54.83104540654693,44.41913439635543 55.18479408658917,44.70387243735771 55.06687785990842,44.60895975702361 C54.97254487856382,44.51404707668952 55.137627595916875,44.77505694760827 55.137627595916875,44.82251328777532 C55.137627595916875,44.656416097190665 55.09046110524458,45.20216400911169 55.01971136923613,45.1072513287776 C55.043294614572275,45.13097949886112 55.255543822597616,44.91742596810941 55.255543822597616,45.0123386484435 C55.255543822597616,44.98861047835998 55.06687785990842,44.89369779802589 54.99612812389998,44.846241457858845 C54.90179514255538,44.77505694760827 54.78387891587463,44.56150341685657 54.66596268919389,44.490318906606 C54.64237944385774,44.46659073652248 54.64237944385774,44.419134396355425 54.61879619852159,44.3954062262719 C54.61879619852159,44.56150341685657 54.524463217176994,44.632687927107135 54.3357972544878,44.60895975702361 C55.18479408658918,44.846241457858845 55.72720872932061,43.65983295368269 54.948961633227675,43.232725892179275Z"/>
    <path id="path-21" opacity="1" fill-rule="evenodd" d="M48.53431890179517,47.43261199696277 C48.156986976416775,47.480068337129815 47.89757127771913,47.81226271829914 47.77965505103838,48.14445709946847 C47.661738824357634,48.524107820804836 47.732488560366086,48.97494305239178 48.01548750439988,49.28340926347758 C48.67581837381207,49.99525436598328 49.642731432594196,49.354593773728155 50.161562829989485,48.7851176917236 C50.49172826469558,48.429195140470746 50.562478000704026,47.76480637813209 50.161562829989485,47.40888382687925 C49.87856388595569,47.14787395596049 49.5483984512496,47.005504935459356 49.171066525871204,47.02923310554288 C48.79373460049282,47.02923310554288 48.416402675114426,47.21905846621107 48.13340373108063,47.48006833712982 C47.567405843013034,48.04954441913438 47.77965505103838,48.99867122247531 48.48715241112287,49.3071374335611 C48.81731784582897,49.449506454062245 49.171066525871204,49.42577828397872 49.477648715241145,49.25968109339406 C49.64273143259419,49.16476841305997 49.78423090461109,49.02239939255883 49.878563885955685,48.85630220197417 C49.972896867300285,48.69020501138951 50.02006335797258,48.50037965072132 50.02006335797258,48.28682611996961 L50.02006335797258,48.26309794988609 C49.99648011263643,48.358010630220186 49.99648011263643,48.452923310554276 49.972896867300285,48.547835990888366 C49.972896867300285,48.52410782080484 49.972896867300285,48.50037965072132 49.99648011263643,48.47665148063779 C49.94931362196414,48.57156416097189 49.92573037662798,48.64274867122245 49.878563885955685,48.73766135155655 C49.878563885955685,48.73766135155655 49.878563885955685,48.713933181473024 49.902147131291834,48.713933181473024 C49.85498064061954,48.7851176917236 49.784230904611086,48.85630220197416 49.73706441393879,48.927486712224734 L49.80781414994724,48.85630220197416 C49.73706441393879,48.903758542141205 49.666314677930345,48.97494305239178 49.59556494192189,49.022399392558825 C49.61914818725804,48.9986712224753 49.666314677930345,48.97494305239178 49.68989792326649,48.97494305239178 C49.61914818725804,48.9986712224753 49.52481520591345,49.04612756264235 49.454065469905,49.06985573272587 C49.50123196057729,49.04612756264235 49.52481520591345,49.04612756264235 49.571981696585745,49.04612756264235 C49.477648715241145,49.06985573272587 49.4068989792327,49.06985573272587 49.3125659978881,49.09358390280939 L49.38331573389655,49.09358390280939 C49.28898275255195,49.09358390280939 49.21823301654351,49.06985573272587 49.12390003519891,49.06985573272587 C49.147483280535056,49.06985573272587 49.171066525871204,49.06985573272587 49.19464977120736,49.09358390280939 C48.95881731784586,48.6902050113895 48.74656810982052,48.286826119969604 48.510735656459026,47.907175398633235 C48.510735656459026,47.93090356871676 48.510735656459026,47.93090356871676 48.48715241112288,47.95463173880028 C48.510735656459026,47.883447228549706 48.55790214713133,47.81226271829914 48.58148539246748,47.71735003796505 C48.55790214713133,47.74107820804857 48.55790214713133,47.788534548215615 48.53431890179518,47.81226271829914 C48.51073565645903,47.83599088838266 48.53431890179518,47.788534548215615 48.51073565645903,47.83599088838266 C48.51073565645903,47.83599088838266 48.32206969376983,48.002088078967326 48.43998592045058,47.907175398633235 C48.41640267511443,47.93090356871676 48.43998592045058,47.907175398633235 48.41640267511443,47.907175398633235 C48.34565293910598,47.95463173880028 48.27490320309754,47.9783599088838 48.204153467089085,48.002088078967326 C48.41640267511443,47.9783599088838 48.65223512847593,47.95463173880029 48.86448433650127,47.907175398633235 C48.86448433650127,47.907175398633235 49.07673354452662,48.002088078967326 48.98240056318202,47.95463173880028 C48.86448433650127,47.883447228549706 49.123900035198915,48.07327258921789 49.07673354452662,48.02581624905085 C49.00598380851817,47.95463173880028 49.19464977120737,48.19191343963551 49.14748328053507,48.120728929384946 C49.100316789862774,48.0732725892179 49.12390003519892,48.002088078967326 49.17106652587122,48.215641609719036 C49.14748328053507,48.120728929384946 49.17106652587122,48.31055429005313 49.17106652587122,48.31055429005313 L49.17106652587122,48.23936977980256 C49.17106652587122,48.286826119969604 49.17106652587122,48.334282460136656 49.14748328053507,48.35801063022018 C49.17106652587122,48.31055429005313 49.14748328053507,48.31055429005313 49.12390003519892,48.3817388003037 C49.12390003519892,48.42919514047074 49.100316789862774,48.45292331055427 49.076733544526626,48.47665148063779 C49.02956705385433,48.524107820804836 49.02956705385433,48.524107820804836 49.076733544526626,48.500379650721314 C49.265399507215825,48.310554290053126 49.31256599788812,47.95463173880028 49.171066525871225,47.71735003796505 C49.076733544526626,47.480068337129815 48.81731784582898,47.38515565679572 48.53431890179517,47.43261199696277Z"/>
  </defs>
  <g opacity="1">
    <g opacity="1">
      <g opacity="1">
        <use xlink:href="#path-0" fill="rgb(27,39,70)" fill-opacity="1"/>
      </g>
      <g opacity="1">
        <use xlink:href="#path-1" fill="rgb(253,204,19)" fill-opacity="1"/>
      </g>
      <g opacity="1">
        <use xlink:href="#path-2" fill="rgb(253,204,19)" fill-opacity="1"/>
      </g>
      <g opacity="1">
        <use xlink:href="#path-3" fill="rgb(253,204,19)" fill-opacity="1"/>
      </g>
      <g opacity="1">
        <use xlink:href="#path-4" fill="rgb(253,204,19)" fill-opacity="1"/>
      </g>
      <g opacity="1">
        <use xlink:href="#path-5" fill="rgb(253,204,19)" fill-opacity="1"/>
      </g>
      <g opacity="1">
        <use xlink:href="#path-6" fill="rgb(253,204,19)" fill-opacity="1"/>
      </g>
      <g opacity="1">
        <use xlink:href="#path-7" fill="rgb(253,204,19)" fill-opacity="1"/>
      </g>
      <g opacity="1">
        <use xlink:href="#path-8" fill="rgb(253,204,19)" fill-opacity="1"/>
      </g>
      <g opacity="1">
        <use xlink:href="#path-9" fill="rgb(253,204,19)" fill-opacity="1"/>
      </g>
      <g opacity="1">
        <use xlink:href="#path-10" fill="rgb(253,204,19)" fill-opacity="1"/>
      </g>
      <g opacity="1">
        <use xlink:href="#path-11" fill="rgb(253,204,19)" fill-opacity="1"/>
      </g>
      <g opacity="1">
        <use xlink:href="#path-12" fill="rgb(253,204,19)" fill-opacity="1"/>
      </g>
      <g opacity="1">
        <use xlink:href="#path-13" fill="rgb(253,204,19)" fill-opacity="1"/>
      </g>
      <g opacity="1">
        <use xlink:href="#path-14" fill="rgb(253,204,19)" fill-opacity="1"/>
      </g>
      <g opacity="1">
        <use xlink:href="#path-15" fill="rgb(255,255,255)" fill-opacity="1"/>
      </g>
      <g opacity="1">
        <use xlink:href="#path-16" fill="rgb(29,29,27)" fill-opacity="1"/>
      </g>
      <g opacity="1">
        <use xlink:href="#path-17" fill="rgb(255,255,255)" fill-opacity="1"/>
      </g>
      <g opacity="1">
        <use xlink:href="#path-18" fill="rgb(232,119,10)" fill-opacity="1"/>
      </g>
      <g opacity="1">
        <use xlink:href="#path-19" fill="rgb(246,167,28)" fill-opacity="1"/>
      </g>
      <g opacity="1">
        <use xlink:href="#path-20" fill="rgb(255,220,111)" fill-opacity="1"/>
      </g>
      <g opacity="1">
        <use xlink:href="#path-21" fill="rgb(255,220,111)" fill-opacity="1"/>
      </g>
    </g>
  </g>
</svg>