<?xml version="1.0" encoding="utf-8"?>
<svg version="1.1" xmlns="http://www.w3.org/2000/svg" xmlns:xlink="http://www.w3.org/1999/xlink" height="129.5000000000001" width="134.0000000000004">
  <defs>
    <path id="path-0" opacity="1" fill-rule="evenodd" d="M84.28144830160511,20.45129682997122 C85.38185890257562,19.804418828049993 86.18215752146327,18.659942363112428 86.88241881298995,17.614985590778133 C87.6827174318776,16.420749279538942 88.30795072788358,15.151873198847298 88.78312803284813,13.808357348703206 C89.35834266517362,12.216042267050948 86.63232549458756,11.444764649375635 86.23217618514374,13.111719500480344 C85.93206420306089,14.330835734870353 85.58193355729753,15.52507204610955 85.15677491601348,16.694428434197924 C84.7316162747294,17.838904899135485 84.10638297872343,18.88386167146978 83.80627099664056,20.05321805955816 C83.73124300111985,20.351777137367957 84.03135498320272,20.600576368876123 84.28144830160511,20.45129682997122Z"/>
    <path id="path-1" opacity="1" fill-rule="evenodd" d="M53.895110115714886,18.510662824207422 C54.49533407988062,16.395869356388026 53.72004479283322,13.882997118155561 53.21985815602844,11.793083573486978 C52.79469951474438,9.976849183477377 49.818589025755955,10.773006724303503 50.393803658081445,12.56436119116229 C51.069055617767894,14.604514889529238 51.74430757745434,17.14226705091252 53.34490481522963,18.65994236311232 C53.519970138111304,18.80922190201722 53.82008212019417,18.73458213256477 53.895110115714886,18.510662824207422Z"/>
    <path id="path-2" opacity="1" fill-rule="evenodd" d="M30.011198208286668,34.110374639769304 C29.661067562523325,33.363976945244815 29.33594624860022,32.69221902017278 28.88577827547592,31.995581171949915 C28.435610302351623,31.323823246877872 28.010451661067563,30.65206532180583 27.560283687943265,29.980307396733792 C26.33482642777156,28.08943323727175 23.55879059350505,30.303746397694404 25.134378499440096,31.84630163304502 C25.73460246360583,32.44341978866461 26.3598357596118,33.0405379442842 26.96005972377753,33.63765609990379 C27.560283687943265,34.23477425552339 28.23553564762971,34.7074927953889 28.91078760731616,35.205091258405226 C29.611048898842846,35.72756964457237 30.311310190369532,34.75725264169053 30.011198208286668,34.110374639769304Z"/>
    <path id="path-3" opacity="1" fill-rule="evenodd" d="M18.356849570735434,58.61709894332378 C18.03172825681233,57.970220941402545 17.83165360209042,57.69654178674356 17.231429637924684,57.29846301633049 C16.63120567375895,56.900384245917415 16.00597237775298,56.55206532180598 15.355729749906766,56.278386167147 C14.030235162374105,55.73102785782903 12.579693915640247,55.48222862632086 11.12915266890639,55.382708933717595 C9.128406121687277,55.25830931796351 9.128406121687277,58.641978866474595 11.12915266890639,58.46781940441888 C12.354609929078096,58.36829971181561 13.530048525569327,58.44293948126806 14.730496453900793,58.641978866474595 C15.25569242254581,58.74149855907787 15.780888391190828,58.841018251681135 16.306084359835843,58.990297790586034 C16.981336319522295,59.18933717579257 17.3064576334454,59.21421709894339 18.00671892497209,59.21421709894339 C18.331840238895197,59.21421709894339 18.50690556177687,58.86589817483195 18.356849570735434,58.61709894332378Z"/>
    <path id="path-4" opacity="1" fill-rule="evenodd" d="M23.183650615901602,87.8510086455331 C22.333333333333474,87.35341018251677 21.207913400522724,87.87588856868392 20.307577454274124,87.70172910662819 C19.357222844345042,87.52756964457248 18.4318775662562,88.02516810758881 18.30683090705501,89.04524495677227 C18.181784247853813,89.89116234390002 18.907054871220744,90.98587896253595 19.88241881299006,90.86147934678186 C20.907801418439856,90.73707973102779 21.833146696528697,90.4634005763688 22.633445315416346,89.79164265129675 C22.933557297499213,89.51796349663778 23.183650615901602,89.19452449567717 23.333706606943032,88.7964457252641 C23.43374393430399,88.54764649375595 23.458753266144228,88.00028818443799 23.183650615901602,87.8510086455331Z"/>
    <path id="path-5" opacity="1" fill-rule="evenodd" d="M46.56737588652493,107.68030739673397 C45.94214259051895,108.42670509125844 45.69204927211656,109.29750240153702 45.391937290033695,110.21805955811722 C45.06681597611058,111.16349663784824 44.76670399402772,112.08405379442844 44.44158268010461,113.02949087415946 C43.71631205673768,115.16916426512967 47.36767450541257,116.11460134486067 47.79283314669664,113.95004803073967 C47.96789846957831,112.97973102785784 48.167973124300225,112.00941402497598 48.3430384471819,111.03909702209415 C48.51810377006356,110.09365994236313 48.76819708846595,109.17310278578293 48.568122433744044,108.2027857829011 C48.44307577454285,107.35686839577336 47.142590518850426,107.00854947166192 46.56737588652493,107.68030739673397Z"/>
    <path id="path-6" opacity="1" fill-rule="evenodd" d="M79.87980589772319,110.06878001921235 C79.72974990668175,111.6610951008646 80.48002986188891,113.60172910662831 80.93019783501322,115.11940441882813 C81.48040313549846,117.06003842459182 84.63157894736857,116.08972142170997 83.8812989921614,114.29836695485118 C83.23105636431518,112.73093179634972 82.60582306830922,110.66589817483194 81.40537513997776,109.42190201729112 C80.83016050765227,108.84966378482233 79.9548338932439,109.34726224783866 79.87980589772319,110.06878001921235Z"/>
    <path id="path-7" opacity="1" fill-rule="evenodd" d="M108.01530421799178,92.15523535062428 C109.31578947368422,93.02603266090286 110.44120940649498,94.1456292026896 111.14147069802168,95.56378482228614 C111.94176931690933,97.20585975024004 114.49272116461371,95.76282420749268 113.61739455020535,94.12074927953879 C112.59201194475553,92.18011527377509 111.01642403882047,90.71219980787693 108.91564016424039,90.01556195965406 C107.5901455767077,89.59260326609018 106.96491228070172,91.45859750240142 108.01530421799178,92.15523535062428Z"/>
    <path id="path-8" opacity="1" fill-rule="evenodd" d="M114.64277715565515,63.394044188280645 C116.36842105263165,63.49356388088391 118.14408361328861,63.31940441882819 119.86972751026511,63.21988472622493 C121.67039940276231,63.12036503362167 121.34527808883921,60.4582132564843 119.544606196342,60.78165225744491 C117.84397163120575,61.0802113352547 116.09331840238902,61.27925072046124 114.44270250093324,61.75196926032675 C113.49234789100416,62.02564841498574 113.71743187756631,63.34428434197901 114.64277715565515,63.394044188280645Z"/>
    <path id="path-9" opacity="1" fill-rule="evenodd" d="M109.11571481896253,35.70268972142164 C110.09107876073183,34.831892411143066 110.81634938409877,33.712295869356325 111.84173198954855,32.891258405379375 C112.8421052631581,32.07022094140243 114.04255319148956,31.4233429394812 115.26801045166125,30.975504322766504 C117.21873833519989,30.25398655139282 116.01829040686843,27.367915465898108 114.14259051885051,28.338232468779953 C112.7170586039569,29.08463016330445 111.44158268010473,30.030067243035475 110.31616274729397,31.14966378482222 C109.26577081000396,32.19462055715651 108.11534154535296,33.46349663784816 107.71519223590916,34.90653218059551 C107.46509891750677,35.727569644572455 108.5154908547968,36.27492795389042 109.11571481896253,35.70268972142164Z"/>
    <path id="path-10" opacity="1" fill-rule="evenodd" d="M21.683090705487075,42.24610951008645 C21.483016050765162,42.171469740633995 21.282941396043253,42.096829971181556 21.107876073161574,41.99731027857828 C21.48301605076516,42.171469740633995 19.882418812989865,41.449951969260326 19.25718551698389,41.20115273775216 C19.03210153042174,41.12651296829971 17.6565882792086,40.75331412103746 18.75699888017911,41.02699327569645 C18.406868234415768,40.92747358309318 18.056737588652425,40.70355427473583 17.73161627472932,40.52939481268012 C17.38148562896597,40.355235350624405 17.056364315042863,40.181075888568685 16.73124300111976,39.98203650336216 C16.581187010078327,39.882516810758894 15.630832400149247,39.459558117195016 15.60582306830901,39.285398655139296 C16.106009705113784,39.733237271853994 16.181037700634505,39.78299711815563 15.830907054871156,39.409798270893376 C15.680851063829724,39.26051873198848 15.555804404628528,39.086359269932764 15.405748413587096,38.937079731027865 C15.25569242254566,38.76292026897215 15.130645763344466,38.613640730067246 14.980589772303034,38.439481268011534 C15.50578574094805,39.11123919308358 15.580813736468766,39.235638808837656 15.25569242254566,38.787800192122965 C14.055244494214193,37.14572526416908 12.554684583799856,36.02612872238234 10.428891377379546,36.02612872238234 C8.653228816722581,36.02612872238234 7.102650242627767,36.84716618635929 6.027248973497493,38.21556195965419 C3.5513251213138375,41.4001921229587 5.226950354609847,45.754178674351586 8.92833146696521,46.97329490874159 C9.778648749533334,47.24697406340057 10.653975363941697,47.39625360230547 11.504292646509821,47.66993275696446 C12.429637924598662,47.968491834774255 13.329973870847262,48.3416906820365 14.280328480776342,48.61536983669549 C16.406121687196652,49.18760806916427 18.53191489361696,49.436407300672435 20.73273609555799,49.16272814601345 C22.508398656214954,48.9388088376561 23.983949234789055,47.993371757925075 24.234042553191443,46.10249759846302 C24.484135871593832,44.28626320845341 23.35871593878308,42.89298751200769 21.683090705487075,42.24610951008645Z"/>
    <path id="path-11" opacity="1" fill-rule="evenodd" d="M16.906308324001525,71.82833813640734 C15.330720418066472,70.43506243996161 13.004852556924249,70.83314121037468 11.10414333706609,71.05706051873203 C9.353490108249362,71.25609990393856 7.577827547592398,71.4551392891451 5.827174318775672,71.67905859750243 C3.77640910787608,71.90297790585979 2.050765210899593,72.59961575408265 0.9753639417693187,74.46560999039389 C0.05001866368047787,76.0081652257445 0,77.8243996157541 0.7002612915266904,79.44159462055718 C1.3755132512131418,81.03390970220943 2.6509891750653276,82.22814601344862 4.351623740201575,82.67598463016333 C6.477416946621886,83.2482228626321 8.178051511758134,82.50182516810762 9.828667413213902,81.23294908741596 C11.354236655468478,80.03871277617677 12.904815229563294,78.86935638808839 14.430384471817867,77.6751200768492 C15.205673758865276,77.07800192122961 15.880925718551726,76.53064361191164 16.48114968271746,75.78424591738714 C16.956326987682004,75.18712776176756 17.406494960806302,74.6646493756004 17.5315416200075,73.89337175792508 C17.606569615528215,73.19673390970222 17.48152295632702,72.35081652257446 16.906308324001525,71.82833813640734Z"/>
    <path id="path-12" opacity="1" fill-rule="evenodd" d="M32.76222471071299,99.4201729106628 C30.486375513251254,99.37041306436117 28.83575961179548,101.78376560999037 27.385218365061622,103.25168107588854 C26.73497573721541,103.89855907780978 26.084733109369196,104.5205571565802 25.409481149682744,105.14255523535061 C25.134378499440118,105.39135446685877 24.709219858156054,105.93871277617673 24.38409854423295,106.03823246878001 C24.884285181037725,105.66503362151776 24.934303844718208,105.64015369836694 24.534154535274382,105.93871277617674 C24.359089212392707,106.06311239193083 24.184023889511035,106.18751200768492 23.983949234789122,106.311911623439 C22.583426651735746,107.28222862632083 21.48301605076523,108.70038424591739 21.558044046285946,110.51661863592699 C21.608062709966426,111.81037463976945 22.058230683090724,113.02949087415946 22.983575961179564,113.95004803073967 C25.259425158641307,116.21412103746398 28.935796939156432,115.56724303554275 30.661440836132922,112.97973102785784 C31.71183277342296,111.38741594620558 32.81224337439347,109.81998078770414 33.762597984322554,108.15302593659943 C34.312803284807806,107.18270893371759 34.787980589772346,106.18751200768493 35.21313923105642,105.14255523535063 C35.81336319522215,103.67463976945245 36.18850317282573,102.43064361191162 35.413213885778326,100.9129682997118 C34.88801791713331,99.96753121998078 33.812616648003036,99.42017291066281 32.76222471071299,99.4201729106628Z"/>
    <path id="path-13" opacity="1" fill-rule="evenodd" d="M63.34863755132509,110.01902017291069 C61.04777902202311,110.84005763688764 60.29749906681594,113.85052833813644 59.72228443449044,115.99020172910667 C59.247107129525894,117.78155619596546 58.771929824561354,119.54803073967345 58.39678984695777,121.36426512968306 C58.04665920119442,122.98146013448616 58.021649869354185,124.32497598463024 58.696901829040634,125.84265129683006 C59.4471817842478,127.48472622478397 61.0477790220231,128.52968299711824 62.77342291899959,128.87800192122967 C65.94960806270994,129.5000000000001 69.75102650242627,127.16128722382334 69.72601717058603,123.62833813640736 C69.7010078387458,121.4140249759847 69.55095184770437,119.22459173871283 69.40089585666293,117.01027857829014 C69.30085852930198,115.51748318924115 69.27584919746172,113.72612872238236 68.60059723777528,112.35773294908745 C68.25046659201193,111.61133525456295 67.67525195968643,110.84005763688762 66.97499066815975,110.36733909702211 C65.84957073534899,109.52142170989435 64.59910414333704,109.57118155619598 63.34863755132509,110.01902017291069Z"/>
    <path id="path-14" opacity="1" fill-rule="evenodd" d="M92.35946248600233,101.88328530259358 C92.50951847704377,104.3215177713736 93.684957073535,106.48607108549464 94.68533034714457,108.70038424591729 C95.48562896603221,110.5166186359269 96.53602090332225,112.20845341018243 97.48637551325135,113.9500480307396 C99.31205673758879,117.23419788664737 103.83874580067206,117.93083573487023 106.73982829413978,115.71652257444757 C109.64091078760752,113.47732949087408 110.11608809257206,108.9989433237271 107.36506159014576,106.38655139289138 C105.93952967525215,105.01815561959647 104.564016424039,103.5751200768491 103.01343784994417,102.33112391930828 C101.13773796192625,100.83832853025929 99.36207540126927,99.14649375600376 97.03620754012705,98.35033621517763 C94.86039567002625,97.60393852065314 92.23441582680115,99.56945244956765 92.35946248600233,101.88328530259358Z"/>
    <path id="path-15" opacity="1" fill-rule="evenodd" d="M112.51698394923498,82.12862632084533 C113.3673012318031,82.80038424591737 114.2676371780517,83.37262247838615 115.14296379246005,83.99462055715657 C115.26801045166125,84.09414024975982 115.84322508398675,84.51709894332372 115.21799178798078,84.04438040345819 C114.36767450541267,83.39750240153695 115.9932810750282,84.64149855907779 116.09331840238913,84.71613832853023 C116.64352370287439,85.06445725264166 115.26801045166125,84.04438040345819 115.7431877566258,84.44245917387124 C115.91825307950747,84.59173871277616 116.11832773422938,84.74101825168104 116.29339305711105,84.91517771373675 C116.86860768943654,85.4376560999039 117.39380365808155,86.00989433237268 117.91899962672657,86.58213256484146 C118.46920492721183,87.20413064361188 117.51885031728276,86.15917387127759 117.543859649123,86.10941402497596 C117.51885031728276,86.13429394812678 117.89399029488634,86.63189241114311 117.94400895856683,86.70653218059554 C118.41918626353136,87.40317002881841 118.96939156401662,88.05004803073963 119.51959686450186,88.72180595581169 C119.19447555057876,88.32372718539862 118.8943635684959,87.92564841498556 118.5692422545728,87.50268972142169 C118.81933557297518,87.82612872238231 119.04441955953732,88.1246878001921 119.26950354609949,88.44812680115271 C120.14483016050784,89.74188280499517 121.29525942515883,90.76195965417865 122.84583799925365,91.18491834774254 C124.27136991414726,91.5829971181556 126.19708846584564,91.40883765609988 127.47256438969782,90.58780019212294 C130.04852556924243,88.92084534101824 131.49906681597628,85.18885686839576 129.6233669279584,82.42718539865513 C129.09817095931336,81.631027857829 128.49794699514763,80.8846301633045 127.8977230309819,80.13823246878 C127.29749906681617,79.39183477425551 126.52220977976876,78.86935638808835 125.74692049272136,78.29711815561959 C124.92161254199347,77.69999999999999 124.07129525942536,77.15264169068202 123.14594998133651,76.72968299711815 C120.36991414707,75.41104707012487 117.41881298992183,74.59000960614792 114.34266517357244,75.1622478386167 C111.44158268010473,75.73448607108548 110.11608809257208,80.23775216138327 112.51698394923498,82.12862632084533Z"/>
    <path id="path-16" opacity="1" fill-rule="evenodd" d="M112.24188129899251,48.889048991354336 C113.14221724524111,49.63544668587883 113.89249720044829,50.008645533141085 115.01791713325903,50.157925072045984 C115.69316909294548,50.25744476464925 116.29339305711123,50.20768491834761 116.96864501679768,50.1828049951968 C118.09406494960844,50.133045148895164 119.19447555057894,50.133045148895164 120.3198954833897,50.157925072045984 C122.52071668533074,50.1828049951968 124.746547219112,50.307204610950876 126.94736842105303,50.456484149855775 C128.77304964539047,50.605763688760675 130.54871220604747,49.635446685878826 131.82418812989962,48.44121037463964 C133.4247853676749,46.97329490874146 134.00000000000043,44.73410182516797 133.72489734975778,42.6690682036502 C133.19970138111276,38.812680115273636 129.09817095931356,35.6031700288183 125.09667786487535,36.94668587896239 C122.5707353490112,37.792603266090154 120.09481149682755,38.812680115273636 117.71892497200484,40.00691642651283 C115.39305711086261,41.176272814601205 111.96677864874987,42.54466858789612 111.26651735722318,45.25658021133512 C110.96640537514031,46.475696445725134 111.2164986935427,48.068011527377394 112.24188129899251,48.889048991354336Z"/>
    <path id="path-17" opacity="1" fill-rule="evenodd" d="M95.73572228443453,29.432949087415874 C96.96117954460622,29.28366954851098 97.78648749533411,28.935350624399543 98.73684210526321,28.188952929875047 C99.28704740574847,27.765994236311165 99.78723404255324,27.29327569644565 100.28742067935802,26.79567723342932 C101.2377752892871,25.875120076849107 102.16312056737596,24.92968299711808 103.11347517730503,24.009125840537862 C104.01381112355364,23.11344860710847 104.91414706980224,22.24265129682989 105.81448301605084,21.34697406340049 C106.31466965285563,20.874255523534977 106.81485628966041,20.376657060518646 107.24001493094447,19.8541786743515 C107.56513624486757,19.65513928914497 107.81522956326997,19.431219980787617 108.11534154535283,19.20730067243027 C109.71593878312812,18.03794428434189 110.99141470698032,16.470509125840447 110.91638671145961,14.355715658021039 C110.84135871593888,12.862920268972045 110.34117207913411,11.469644572526319 109.26577081000383,10.399807877041207 C108.24038820455402,9.379731027857726 106.71481896229945,8.757732949087313 105.28928704740582,8.757732949087313 C103.48861515490862,8.757732949087313 101.18775662560664,9.777809798270791 100.41246733855922,11.544284341978768 C99.33706606942894,13.957636887607975 97.83650615901459,16.147070124879832 96.46099290780145,18.38626320845332 C95.785740948115,19.456099903938437 95.13549832026878,20.525936599423545 94.46024636058233,21.57089337175784 C93.6099290780142,22.939289145052754 92.40948114968273,24.581364073006647 92.5845464725644,26.248318924111356 C92.73460246360584,27.790874159461982 93.88503172825683,29.631988472622407 95.73572228443453,29.432949087415874Z"/>
    <path id="path-18" opacity="1" fill-rule="evenodd" d="M70.27622247107138,19.953698366954857 C71.35162374020166,18.43602305475505 71.87681970884668,16.694428434197896 72.47704367301242,14.952833813640733 C73.05225830533792,13.310758885686845 73.6774916013439,11.693563880883769 74.35274356103035,10.101248799231511 C74.15266890630843,10.573967339097026 73.95259425158652,11.021805955811724 73.75251959686462,11.494524495677236 C73.90257558790606,11.171085494716623 74.05263157894748,10.872526416906824 74.2527062336694,10.573967339097026 C73.9275849197463,10.996926032660905 73.60246360582317,11.419884726224787 73.27734229190008,11.817963496637852 C74.75289287047417,10.399807877041308 75.30309817095944,8.68309317963497 75.4031354983204,6.692699327569647 C75.55319148936184,3.5080691642651307 72.85218365061603,0.7961575408261292 69.8260544979471,0.3980787704130645 C66.77491601343793,0 63.52370287420687,1.8659942363112398 62.77342291899969,4.975984630163306 C62.29824561403515,6.941498559077813 62.44830160507659,8.807492795389052 63.49869354236663,10.549087415946207 C63.298618887644714,10.051488952929876 63.07353490108257,9.553890489913545 62.87346024636065,9.056292026897214 C63.448674878686155,10.748126801152738 63.54871220604711,12.639000960614796 63.89884285181045,14.380595581171953 C64.29899216125428,16.321229586935644 64.74916013437857,18.212103746397695 65.84957073534909,19.879058597502407 C66.94998133631961,21.620653218059562 69.15080253826065,21.546013448607113 70.27622247107138,19.953698366954857Z"/>
    <path id="path-19" opacity="1" fill-rule="evenodd" d="M43.81634938409874,24.28280499519694 C44.441582680104716,21.023535062439976 42.565882792086796,17.913544668587903 40.8402388951103,15.226512968299716 C40.21500559910433,14.231316042267053 39.83986562150075,13.111719500480309 39.18962299365454,12.116522574447647 C38.38932437476689,10.872526416906819 37.639044419559724,10.126128722382322 36.51362448674897,9.28021133525456 C34.9880552444944,8.110854947166182 33.237402015677674,7.76253602305475 31.33669279581951,7.76253602305475 C29.13587159387848,7.76253602305475 27.085106382978886,8.931892411143128 25.959686450168135,10.822766570605186 C24.784247853676902,12.81316042267051 24.93430384471834,15.052353506244 25.959686450168135,17.06762728146014 C26.53490108249363,18.187223823246885 27.185143710339844,19.15754082612873 28.235535647629877,19.953698366954857 C29.285927584919914,20.74985590778099 30.33631952220995,21.272334293948134 31.611795446062136,21.69529298751202 C32.111982082866916,21.86945244956773 32.58715938783145,22.01873198847263 33.08734602463623,22.19289145052835 C33.31243001119839,22.267531219980796 33.51250466592029,22.367050912584062 33.737588652482444,22.441690682036516 C34.68794326241152,22.790009606147947 32.53714072415097,21.794812680115285 33.462486002239814,22.367050912584062 C33.11235535647647,22.143131604226713 32.612168719671686,21.69529298751202 33.23740201567766,22.21777137367917 C33.437476670399576,22.391930835734883 33.637551325121485,22.541210374639782 33.8376259798434,22.7153698366955 C34.287793952967704,23.11344860710856 34.737961926092,23.536407300672444 35.16312056737607,23.98424591738714 C36.08846584546491,24.92968299711817 36.888764464352555,26.049279538904916 38.16424038820474,26.596637848222876 C39.339678984695965,27.119116234390024 40.36506159014577,27.293275696445743 41.56550951847724,26.795677233429412 C42.64091078760752,26.322958693563894 43.616274729376826,25.427281460134502 43.81634938409874,24.28280499519694Z"/>
    <path id="path-20" opacity="1" fill-rule="evenodd" d="M102.8383725270624,82.92478386167156 C97.03620754012701,93.5236311239194 86.98245614035096,100.86320845341027 76.12840612168726,103.84879923150827 C63.57372153788733,107.30710854947175 49.49346771183282,104.968395773295 39.31466965285559,96.16090297790596 C29.135871593878356,87.35341018251691 23.583799925345318,71.80345821325656 27.010078387458048,58.0199807877042 C27.285181037700674,56.950144092219084 27.585293019783542,55.880307396733976 27.960432997387127,54.81047070124887 C35.08809257185521,33.91133525456297 59.62224710712958,19.257060518732033 79.05449794699521,25.004322766570652 C89.83351997013817,28.21383285302599 99.8122433743935,36.12564841498565 104.83911907428153,47.3464937560039 C105.3393057110863,48.49097022094146 105.7894736842106,49.660326609029845 106.18962299365441,50.85456292026903 C109.5158641284062,61.279250720461164 108.06532288167233,73.42065321805964 102.8383725270624,82.92478386167156Z"/>
    <path id="path-21" opacity="1" fill-rule="evenodd" d="M101.68794326241152,55.830547550432286 C101.81298992161271,47.89385206532181 93.81000373273626,45.604899135446686 87.50765210899607,47.446013448607104 C81.33034714445705,49.262247838616716 77.90406868234433,55.53198847262249 81.95558044046302,60.98069164265131 C84.48152295632717,64.36436119116236 88.98320268757017,66.13083573487035 93.13475177304981,65.38443804034584 C97.68645016797329,64.53852065321809 101.6129152668908,60.458213256484164 101.68794326241152,55.830547550432286Z"/>
    <path id="path-22" opacity="1" fill-rule="evenodd" d="M60.27248973497579,55.830547550432286 C60.39753639417699,47.89385206532181 52.394550205300526,45.604899135446686 46.09219858156031,47.446013448607104 C39.9148936170213,49.262247838616716 36.48861515490856,55.53198847262249 40.54012691302727,60.98069164265131 C43.0660694288914,64.36436119116236 47.56774916013441,66.13083573487035 51.71929824561408,65.38443804034584 C56.27099664053756,64.53852065321809 60.19746173945508,60.458213256484164 60.27248973497579,55.830547550432286Z"/>
    <path id="path-23" opacity="1" fill-rule="evenodd" d="M102.8383725270624,82.92478386167153 C97.03620754012701,93.52363112391939 86.98245614035096,100.86320845341024 76.12840612168726,103.84879923150822 C63.57372153788733,107.3071085494717 49.49346771183282,104.96839577329496 39.31466965285559,96.16090297790592 C29.135871593878356,87.35341018251688 23.583799925345318,71.80345821325656 27.010078387458048,58.01998078770419 C27.285181037700674,56.95014409221908 27.585293019783542,55.88030739673397 27.960432997387127,54.81047070124886 C26.55991041433375,62.67252641690688 27.46024636058235,70.95754082612878 30.8365061590146,78.19759846301638 C35.03807390817474,87.27877041306442 43.19111608809263,94.56858789625366 52.84471817842484,97.35513928914511 C56.89622993654354,98.52449567723347 61.12280701754391,98.89769452449573 65.32437476670405,98.89769452449573 C73.62747293766337,98.89769452449573 82.15565509518484,97.28049951969265 89.10824934677126,92.77723342939487 C96.78611422172462,87.77636887608074 101.98805524449429,79.54111431316048 104.41396043299747,70.73362151777143 C106.18962299365444,64.28972142170996 106.61478163493848,57.57214217098949 106.18962299365444,50.87944284341984 C109.5158641284062,61.27925072046115 108.06532288167236,73.4206532180596 102.8383725270624,82.92478386167153Z"/>
    <path id="path-24" opacity="1" fill-rule="evenodd" d="M66.07465472191133,85.68645533141209 C62.09817095931335,82.45206532180595 62.07316162747311,79.29231508165225 60.447555057857585,75.03784822286262 C63.19858156028386,76.58040345821324 66.77491601343802,76.77944284341979 69.77603583426668,75.98328530259366 C72.62709966405392,75.23688760806917 75.30309817095949,73.84361191162343 77.5039193729005,71.87809798270894 C76.12840612168735,73.09721421709894 77.02874206793595,82.12862632084533 75.85330347144472,84.6414985590778 C73.82754759238537,88.99548511047068 69.600970511385,88.54764649375599 66.07465472191133,85.68645533141209Z"/>
    <path id="path-25" opacity="1" fill-rule="evenodd" d="M99.13699141470721,58.01998078770423 C101.73796192609205,52.919596541786824 96.63605823068332,48.49097022094146 91.70921985815625,50.28232468780026 C88.38297872340446,51.50144092219028 86.38223217618534,55.1339097022095 87.40761478163515,58.54245917387138 C87.60768943635706,59.21421709894342 87.93281075028017,59.83621517771384 88.4079880552447,60.33381364073017 C89.1082493467714,61.055331412103854 90.0836132885407,61.403650336215286 91.05897723031003,61.60268972142181 C94.1851437103399,62.199807877041415 97.7114594998136,60.8314121037465 99.13699141470721,58.01998078770423Z"/>
    <path id="path-26" opacity="1" fill-rule="evenodd" d="M92.1093691676,55.73102785782909 C92.9346771183279,59.786455331412185 99.16200074654742,56.77598463016338 97.91153415453546,53.61623439000968 C96.71108622620399,50.58088376561007 91.48413587159402,52.72055715658029 92.1093691676,55.73102785782909Z"/>
    <path id="path-27" opacity="1" fill-rule="evenodd" d="M58.871967151922476,58.01998078770423 C61.47293766330733,52.919596541786824 56.37103396789858,48.49097022094146 51.44419559537152,50.28232468780026 C48.117954460619735,51.50144092219028 46.11720791340062,55.1339097022095 47.14259051885042,58.54245917387138 C47.342665173572335,59.21421709894342 47.66778648749544,59.83621517771384 48.14296379245998,60.33381364073017 C48.843225083986674,61.055331412103854 49.81858902575598,61.403650336215286 50.79395296752531,61.60268972142181 C53.92011944755517,62.199807877041415 57.44643523702886,60.8314121037465 58.871967151922476,58.01998078770423Z"/>
    <path id="path-28" opacity="1" fill-rule="evenodd" d="M52.26950354609926,56.62670509125826 C53.09481149682715,60.68213256484134 59.32213512504664,57.67166186359255 58.071668533034696,54.51191162343886 C56.89622993654346,51.476560999039265 51.644270250093285,53.616234390009474 52.26950354609926,56.62670509125826Z"/>
  </defs>
  <g opacity="1">
    <g opacity="1">
      <g opacity="1">
        <use xlink:href="#path-0" fill="rgb(232,119,10)" fill-opacity="1"/>
      </g>
      <g opacity="1">
        <use xlink:href="#path-1" fill="rgb(232,119,10)" fill-opacity="1"/>
      </g>
      <g opacity="1">
        <use xlink:href="#path-2" fill="rgb(232,119,10)" fill-opacity="1"/>
      </g>
      <g opacity="1">
        <use xlink:href="#path-3" fill="rgb(232,119,10)" fill-opacity="1"/>
      </g>
      <g opacity="1">
        <use xlink:href="#path-4" fill="rgb(232,119,10)" fill-opacity="1"/>
      </g>
      <g opacity="1">
        <use xlink:href="#path-5" fill="rgb(232,119,10)" fill-opacity="1"/>
      </g>
      <g opacity="1">
        <use xlink:href="#path-6" fill="rgb(232,119,10)" fill-opacity="1"/>
      </g>
      <g opacity="1">
        <use xlink:href="#path-7" fill="rgb(232,119,10)" fill-opacity="1"/>
      </g>
      <g opacity="1">
        <use xlink:href="#path-8" fill="rgb(232,119,10)" fill-opacity="1"/>
      </g>
      <g opacity="1">
        <use xlink:href="#path-9" fill="rgb(232,119,10)" fill-opacity="1"/>
      </g>
      <g opacity="1">
        <use xlink:href="#path-10" fill="rgb(232,119,10)" fill-opacity="1"/>
      </g>
      <g opacity="1">
        <use xlink:href="#path-11" fill="rgb(232,119,10)" fill-opacity="1"/>
      </g>
      <g opacity="1">
        <use xlink:href="#path-12" fill="rgb(232,119,10)" fill-opacity="1"/>
      </g>
      <g opacity="1">
        <use xlink:href="#path-13" fill="rgb(232,119,10)" fill-opacity="1"/>
      </g>
      <g opacity="1">
        <use xlink:href="#path-14" fill="rgb(232,119,10)" fill-opacity="1"/>
      </g>
      <g opacity="1">
        <use xlink:href="#path-15" fill="rgb(232,119,10)" fill-opacity="1"/>
      </g>
      <g opacity="1">
        <use xlink:href="#path-16" fill="rgb(232,119,10)" fill-opacity="1"/>
      </g>
      <g opacity="1">
        <use xlink:href="#path-17" fill="rgb(232,119,10)" fill-opacity="1"/>
      </g>
      <g opacity="1">
        <use xlink:href="#path-18" fill="rgb(232,119,10)" fill-opacity="1"/>
      </g>
      <g opacity="1">
        <use xlink:href="#path-19" fill="rgb(232,119,10)" fill-opacity="1"/>
      </g>
      <g opacity="1">
        <use xlink:href="#path-20" fill="rgb(253,204,19)" fill-opacity="1"/>
      </g>
      <g opacity="1">
        <use xlink:href="#path-21" fill="rgb(255,255,255)" fill-opacity="1"/>
      </g>
      <g opacity="1">
        <use xlink:href="#path-22" fill="rgb(255,255,255)" fill-opacity="1"/>
      </g>
      <g opacity="1">
        <use xlink:href="#path-23" fill="rgb(246,167,28)" fill-opacity="1"/>
      </g>
      <g opacity="1">
        <use xlink:href="#path-24" fill="rgb(208,96,21)" fill-opacity="1"/>
      </g>
      <g opacity="1">
        <use xlink:href="#path-25" fill="rgb(29,29,27)" fill-opacity="1"/>
      </g>
      <g opacity="1">
        <use xlink:href="#path-26" fill="rgb(255,255,255)" fill-opacity="1"/>
      </g>
      <g opacity="1">
        <use xlink:href="#path-27" fill="rgb(29,29,27)" fill-opacity="1"/>
      </g>
      <g opacity="1">
        <use xlink:href="#path-28" fill="rgb(255,255,255)" fill-opacity="1"/>
      </g>
    </g>
  </g>
</svg>